Coordinates
nRows=8
nColumns=24

# SIMM Motion File Header:
name Coordinates
datacolumns 24
datarows 8
otherdata 1
range 1.01000000000000000000 1.01700000000000010000
endheader
time	pelvis_tx	pelvis_ty	pelvis_tz	pelvis_tilt	pelvis_list	pelvis_rotation	hip_flexion_r	hip_adduction_r	hip_rotation_r	knee_angle_r	ankle_angle_r	subtalar_angle_r	mtp_angle_r	hip_flexion_l	hip_adduction_l	hip_rotation_l	knee_angle_l	ankle_angle_l	subtalar_angle_l	mtp_angle_l	lumbar_extension	lumbar_bending	lumbar_rotation
      1.01000000000000000000	      0.58965214679988998000	      1.04552151647003870000	      0.04975457102522947600	      5.20003155042422270000	     -0.01858547473479484400	      0.20263988975279218000	     -3.98516652293086220000	      1.77657977143095770000	     -4.02974771688318430000	    -10.99089389535804500000	      8.04955701922263780000	      0.42480193136644256000	      1.40039692010977390000	     18.93847921197579300000	     -3.20999047911175240000	     -4.72439867607990930000	    -55.39158101192433000000	      2.20149643326088820000	     -1.49916495129333980000	     -1.96426474866660410000	    -16.32261535388684900000	      1.74576777347241310000	      0.89978541954055347000
      1.01100000000000010000	      0.58951819788790749000	      1.04553418770956900000	      0.04982915806947865700	      5.20009255176416030000	     -0.02047867915538940600	      0.18685875293442344000	     -4.06984675244665620000	      1.78305592144235430000	     -4.02219640719586470000	    -10.94498548780923400000	      8.07738422584317560000	      0.42575302982137381000	      1.37756337575798240000	     18.98354303433975700000	     -3.21310092250555130000	     -4.76799707970443440000	    -55.13450794288292700000	      2.18760851393671810000	     -1.49299111771173430000	     -1.95149285208459470000	    -16.33106819250340500000	      1.73875110791929450000	      0.91998116439460154000
      1.01200000000000000000	      0.58938421159884613000	      1.04554513571713770000	      0.04990310139025675600	      5.20006958961640640000	     -0.02289792818298820200	      0.17132377814971173000	     -4.15439692182400930000	      1.79001224873223610000	     -4.01477849537545590000	    -10.89916676360450200000	      8.10608893040659770000	      0.42674055868391242000	      1.35319221102090490000	     19.02759638964150200000	     -3.21709693133110440000	     -4.81254718518733340000	    -54.87489821552904300000	      2.17288918299299280000	     -1.48675619121404750000	     -1.93849566422580550000	    -16.33941622316460900000	      1.73232953657418780000	      0.93995359676462320000
      1.01300000000000010000	      0.58925022530978477000	      1.04555608372470640000	      0.04997704471103486800	      5.20004662746865160000	     -0.02531717721058753700	      0.15578880336499656000	     -4.23894709120138110000	      1.79696857602211950000	     -4.00736058355504540000	    -10.85334803939975900000	      8.13479363497002690000	      0.42772808754645120000	      1.32882104628382210000	     19.07164974494325800000	     -3.22109294015665880000	     -4.85709729067024210000	    -54.61528848817510400000	      2.15816985204926400000	     -1.48052126471635900000	     -1.92549847636701350000	    -16.34776425382581500000	      1.72590796522907940000	      0.95992602913464942000
      1.01400000000000000000	      0.58911619854958752000	      1.04556334843467780000	      0.05004951716144311100	      5.19982160926292720000	     -0.02916718628857051900	      0.14084219892941996000	     -4.32332870756092810000	      1.80530845481676060000	     -4.00018783327746790000	    -10.80703702270379600000	      8.15620847380979090000	      0.42582967818572803000	      1.31602233415809630000	     19.11350680475455000000	     -3.22727594140257910000	     -4.90359003997946270000	    -54.35015187901341000000	      2.14158749115338500000	     -1.47404807079903530000	     -1.91182066185244050000	    -16.35586459388367000000	      1.72111423617707550000	      0.97943396430357010000
      1.01500000000000010000	      0.58898217178939027000	      1.04557061314464940000	      0.05012198961185136000	      5.19959659105720200000	     -0.03301719536655595100	      0.12589559449384066000	     -4.40771032392049380000	      1.81364833361140510000	     -3.99301508299988850000	    -10.76072600600782000000	      8.17762331264954940000	      0.42393126882500121000	      1.30322362203238050000	     19.15536386456584900000	     -3.23345894264850300000	     -4.95008278928869490000	    -54.08501526985166000000	      2.12500513025750060000	     -1.46757487688170980000	     -1.89814284733786340000	    -16.36396493394152100000	      1.71632050712507220000	      0.99894189947249457000
      1.01600000000000000000	      0.58884815084002085000	      1.04557608126109190000	      0.05019373877046234100	      5.19926761610868300000	     -0.03761168403074679300	      0.11121618414799962000	     -4.49202893386005630000	      1.82270714313072470000	     -3.98591882758283770000	    -10.71402945774849300000	      8.19277894917782310000	      0.41990932854682839000	      1.30050014025557030000	     19.19611834430458300000	     -3.24073375071785690000	     -4.99753147156477960000	    -53.81713530446640400000	      2.10752252380921810000	     -1.46127002390233570000	     -1.88431435365126790000	    -16.37193903182351900000	      1.71237004683890760000	      1.01825166529009390000
      1.01700000000000010000	      0.58871413570147912000	      1.04557975278400540000	      0.05026476463727608300	      5.19883468441736960000	     -0.04295065228115103900	      0.09680396789189248100	     -4.57628453737965210000	      1.83248488337472890000	     -3.97889906702631270000	    -10.66694737792579100000	      8.20167538339456570000	      0.41376385735119081000	      1.30785188882774480000	     19.23577024397075900000	     -3.24910036561065230000	     -5.04593608680774430000	    -53.54651198285750300000	      2.08913967180852240000	     -1.45513351186091190000	     -1.87033518079264650000	    -16.37978688752966500000	      1.70926285531858670000	      1.03736326175637480000
